PathFileType	4	(X/Y/Z)	 s03c0202.trc
DataRate	CameraRate	NumFrames	NumMarkers	Units	OrigDataRate	OrigDataStartFrame	OrigNumFrames
200	200	5	52	mm	200	1251	2000
Frame#	Time	racr			lacr			c7			jug			rlel			rdr			llel			ldr			s2			lic			ric			lasi			rasi			rpsi			lpsi			rgt			lgt			rth1			rth2			rth3			rth4			rlfc			rmfc			rsh1			rsh2			rsh3			rsh4			rlmal			rmmal			rcal			rtoe			rmt5			rmt1			lth1			lth2			lth4			lth3			llfc			lmfc			lsh1			lsh2			lsh3			lsh4			llmal			lmmal			lcal			ltoe			lmt1			lmt5			SBIKE			LBIKE			RBIKE			
		X1	Y1	Z1	X2	Y2	Z2	X3	Y3	Z3	X4	Y4	Z4	X5	Y5	Z5	X6	Y6	Z6	X7	Y7	Z7	X8	Y8	Z8	X9	Y9	Z9	X10	Y10	Z10	X11	Y11	Z11	X12	Y12	Z12	X13	Y13	Z13	X14	Y14	Z14	X15	Y15	Z15	X16	Y16	Z16	X17	Y17	Z17	X18	Y18	Z18	X19	Y19	Z19	X20	Y20	Z20	X21	Y21	Z21	X22	Y22	Z22	X23	Y23	Z23	X24	Y24	Z24	X25	Y25	Z25	X26	Y26	Z26	X27	Y27	Z27	X28	Y28	Z28	X29	Y29	Z29	X30	Y30	Z30	X31	Y31	Z31	X32	Y32	Z32	X33	Y33	Z33	X34	Y34	Z34	X35	Y35	Z35	X36	Y36	Z36	X37	Y37	Z37	X38	Y38	Z38	X39	Y39	Z39	X40	Y40	Z40	X41	Y41	Z41	X42	Y42	Z42	X43	Y43	Z43	X44	Y44	Z44	X45	Y45	Z45	X46	Y46	Z46	X47	Y47	Z47	X48	Y48	Z48	X49	Y49	Z49	X50	Y50	Z50	X51	Y51	Z51	X52	Y52	Z52	
1251	6.2550	489.634781	1359.167119	-71.947405	472.691937	1403.943372	-376.435922	421.583777	1467.805894	-208.979305	423.781005	1291.764002	-233.849014	533.947648	1164.753505	116.695015	723.778441	991.114999	-6.948316	505.862028	1186.105821	-545.776709	709.994428	985.736280	-449.453800	-106.709733	1198.101523	-228.083740	58.494542	1252.279910	-420.902654	50.694132	1225.292314	-45.002605	79.777419	1176.729097	-382.398546	81.247197	1172.506428	-94.378636	-84.122031	1247.415288	-186.937948	-76.640456	1250.017885	-267.900469	21.910195	1147.302921	-37.452546	2.181801	1108.933445	-431.594288	153.598890	1071.744359	-22.141691	242.422931	1072.813288	-23.467269	318.769357	1033.001988	-24.046530	251.211173	1105.944735	-39.145949	431.936397	965.546522	-47.078795	437.398203	946.464870	-177.526715	331.250340	836.777521	-30.506029	287.288222	761.858702	-49.931189	211.047076	717.380436	-53.789298	309.520113	744.532531	-75.627618	112.459691	631.279934	-78.502628	146.766141	629.546159	-163.304077	37.720893	620.903319	-121.267697	295.011863	446.694158	-110.079933	185.431216	500.658483	-48.519211	218.188146	495.983421	-159.027369	80.831615	963.749187	-455.843704	143.159730	903.967469	-462.466571	174.973443	923.605003	-463.187447	170.843612	819.938033	-447.864408	256.832613	722.511614	-433.604680	266.618274	710.640522	-313.062405	220.695712	553.417202	-453.401578	237.081375	471.784522	-437.929287	208.333970	386.123441	-428.419124	271.848279	471.704909	-418.928462	191.828791	260.841111	-408.989876	227.711983	275.584918	-323.519201	131.321331	220.078219	-361.334509	439.977124	192.935148	-356.147593	346.935385	199.195115	-317.923414	319.967920	172.509036	-431.466625	-214.227520	945.788212	-232.037847	-6.049509	83.736277	-435.232587	-11.514526	81.425584	-34.854954	
1252	6.2600	488.099584	1359.358798	-69.106441	474.742290	1404.443010	-374.255908	421.813478	1468.302997	-206.989991	424.480474	1292.174672	-231.900087	531.804330	1163.690912	118.118229	723.363904	991.212731	-6.299410	507.515365	1186.958555	-544.701071	710.602919	985.575372	-449.528320	-106.032328	1198.510026	-233.140803	60.422028	1252.223760	-422.123421	49.953774	1226.256066	-46.030418	80.750484	1176.846861	-383.409019	80.736099	1173.199930	-95.879151	-84.045622	1248.223301	-189.369673	-75.953493	1250.695702	-270.431943	21.969096	1150.130540	-39.035570	2.593277	1108.973508	-432.972574	154.227821	1075.984892	-23.531280	243.184347	1078.239156	-24.910783	320.007881	1039.121085	-25.386556	251.144482	1111.058478	-40.984475	434.007571	973.528236	-48.476930	440.460217	954.044322	-179.850822	335.282818	844.577537	-32.302077	292.181990	769.010125	-51.196134	216.492592	723.622638	-54.719087	314.634662	751.756118	-76.607709	119.215188	635.643038	-77.859150	153.012041	634.102866	-163.911467	43.907198	623.217188	-120.819935	304.869206	453.945256	-110.525239	194.387376	505.868678	-48.647375	227.275455	501.610322	-159.229635	79.294875	963.461020	-457.616891	140.865051	902.807992	-464.808548	172.896240	922.086323	-465.691713	167.515821	818.473139	-450.406254	252.464654	719.991214	-436.256806	263.619343	708.383938	-315.346783	214.650000	551.345934	-455.562330	230.632604	469.571631	-439.729914	201.325444	384.129190	-429.448671	265.604747	469.167679	-421.067040	184.317579	259.073038	-409.369364	220.843409	273.075422	-324.315577	123.536958	220.094332	-361.463398	431.363539	186.100486	-356.346150	338.549965	194.432868	-318.182567	310.980004	167.874880	-431.630166	-214.199502	945.846792	-232.323543	-6.050224	83.733862	-435.265323	-11.530141	81.493682	-34.880250	
1253	6.2650	486.538694	1359.557994	-66.387690	476.844060	1404.825390	-372.065739	422.065257	1468.801203	-205.032910	425.203947	1292.534529	-229.112771	529.746935	1162.456358	119.269934	722.807910	991.337648	-5.689527	509.212418	1187.863882	-543.658558	711.230073	985.355679	-449.604515	-105.336057	1199.161277	-233.505428	61.124976	1251.622379	-419.917205	49.598692	1227.242970	-47.324126	81.948931	1177.049765	-384.566959	80.232427	1173.849401	-97.359571	-84.465598	1249.318837	-191.403043	-76.748572	1252.207305	-271.370857	21.955648	1153.010268	-40.497873	2.896849	1109.152232	-434.300176	154.796667	1080.373806	-24.922763	243.689231	1083.263726	-26.673939	320.931279	1044.923492	-27.237035	251.626436	1116.313064	-43.520503	436.200445	980.786088	-50.619484	442.598342	961.295141	-182.402879	339.001149	851.930089	-34.184306	296.874616	775.637698	-52.454740	221.858033	729.196756	-55.613009	319.555206	758.265131	-77.737449	125.893114	638.661826	-78.570001	159.354930	637.799519	-164.404605	51.164267	623.976457	-122.637979	314.863365	460.378688	-110.772175	203.537271	510.327915	-48.774113	236.422852	506.639604	-159.381492	78.071273	963.109287	-458.835568	138.754971	901.985795	-467.204898	171.002196	920.922988	-468.200489	164.582057	817.383513	-453.063741	248.628391	717.960198	-439.201362	260.769950	706.580675	-318.042224	208.925457	549.697485	-457.456318	224.343137	467.810081	-441.504839	194.340057	382.716915	-430.473216	259.534186	467.172559	-423.223723	176.641646	257.869998	-409.690177	213.953542	271.236986	-325.114731	115.605474	220.605097	-361.563047	422.459574	180.016197	-356.558639	329.924721	190.289555	-318.330195	301.729085	163.998372	-431.765001	-214.168241	945.894302	-232.551301	-6.047949	83.748500	-435.287976	-11.520697	81.607463	-34.950291	
1254	6.2700	484.990467	1359.824904	-63.656272	478.988607	1405.130558	-369.864416	422.293297	1469.243832	-203.090010	424.744927	1292.654571	-226.559077	527.691824	1161.244174	120.305085	722.151995	991.459699	-5.191905	510.929346	1188.694642	-542.738714	711.901115	985.137214	-449.697204	-105.914240	1200.195386	-233.963148	59.964095	1249.908580	-413.053124	49.024043	1228.477321	-48.290660	82.781712	1177.285857	-385.314703	79.737275	1174.455188	-98.814525	-84.522952	1251.214087	-192.913565	-76.142450	1252.990415	-273.279171	21.995713	1156.003371	-41.766725	3.148978	1109.422033	-435.508266	155.319225	1084.643874	-26.336605	244.291248	1088.292264	-28.277244	321.667044	1050.330058	-29.853305	251.674788	1121.197677	-45.321954	437.833854	987.927624	-53.122984	444.453131	968.359290	-185.204675	342.475419	858.557866	-36.100762	301.538318	781.594070	-53.751813	227.144317	734.071813	-56.500703	324.313055	763.962714	-78.894465	132.882256	640.973507	-78.859601	165.577087	640.516138	-164.516848	58.136716	625.074397	-121.865794	325.021589	466.228592	-111.124587	212.847492	514.105546	-48.910184	245.252105	510.882250	-159.404130	76.782778	963.446950	-460.993625	136.927765	901.484643	-469.648942	169.178183	919.995591	-470.121285	162.049707	816.614924	-455.808927	245.364040	716.356853	-442.221521	258.584400	705.309006	-320.978685	203.603045	548.564173	-459.303896	218.268795	466.539460	-443.238677	187.423145	381.876423	-431.448245	253.657097	465.647261	-425.372583	168.901618	257.284296	-409.865669	207.085447	270.096246	-325.917103	107.581521	221.821527	-361.581095	413.398014	174.533162	-356.585541	321.118733	186.812446	-318.615432	292.286920	160.826650	-431.846016	-214.183772	945.867655	-232.533415	-6.059889	83.769433	-435.301722	-11.249146	81.296815	-35.027584	
1255	6.2750	483.676657	1360.283390	-60.818089	481.170992	1405.317366	-367.661032	422.539798	1469.659044	-201.194452	424.598469	1292.754007	-223.859001	525.634576	1160.154141	121.373913	721.429801	991.606854	-4.810841	512.707204	1189.509685	-541.844158	712.615454	984.928497	-449.826754	-106.048924	1200.564482	-234.310061	61.614331	1250.309748	-413.891317	48.632900	1229.853507	-49.297159	83.824215	1177.571263	-386.237681	79.251735	1175.017639	-100.238641	-84.227711	1252.053662	-194.918431	-75.525984	1253.763050	-275.062964	21.926757	1158.990379	-42.930274	3.282553	1109.810355	-436.655336	155.771658	1088.592634	-27.805585	244.763837	1092.747970	-30.071385	322.367325	1055.281246	-31.929211	251.824787	1125.716360	-47.221007	439.899373	994.061513	-56.361061	446.024850	974.636966	-187.718315	345.829330	864.544169	-38.867334	305.986731	786.789544	-55.228715	232.384222	738.025380	-57.406708	329.361290	769.841474	-79.415334	140.044278	642.155795	-79.054827	172.047819	642.096177	-164.904274	65.254224	624.803956	-121.701772	335.743994	471.496835	-111.351279	222.346878	517.212690	-49.019662	254.461532	514.613843	-159.692525	75.808360	963.724872	-462.684883	135.413170	901.257787	-472.017955	167.991289	919.763098	-473.209974	159.955426	816.213518	-458.612306	242.651675	715.283756	-445.410203	257.053684	704.491514	-324.044756	198.668616	548.025604	-461.283382	212.471356	465.904116	-444.969869	180.722110	381.683083	-432.392727	248.089740	464.565282	-427.456861	161.049242	257.494358	-410.058764	200.282187	269.679839	-326.723134	99.542222	223.745997	-361.531988	404.050490	169.468680	-356.736030	312.169364	183.787279	-318.693383	282.616130	158.324666	-431.858316	-214.169172	945.928586	-232.713100	-6.076207	83.781977	-435.283987	-11.248815	81.332230	-35.037669	
